<?xml version="1.0" encoding="UTF-8"?>
<svg width="100" height="100" viewBox="0 0 100 100" xmlns="http://www.w3.org/2000/svg">
  <path fill="#333333" d="M50,90 C50,90 47,83 47,75 C47,67 54,60 54,60 C41,60 30,48 30,35 C30,21.2 41.2,10 55,10 C68.8,10 80,21.2 80,35 C80,48 69,60 56,60 C56,60 63,67 63,75 C63,83 60,90 60,90 L50,90 Z M55,10 C55,10 60,0 70,0 C80,0 85,10 85,10 C85,10 75,15 70,25 C65,15 55,10 55,10 Z M55,10 C55,10 50,0 40,0 C30,0 25,10 25,10 C25,10 35,15 40,25 C45,15 55,10 55,10 Z"/>
</svg>
